<svg width="440" height="440" viewBox="0 0 440 440" fill="none" xmlns="http://www.w3.org/2000/svg">
<rect x="65.3296" y="200" width="65.3297" height="120" rx="10" transform="rotate(-180 65.3296 200)" fill="#74C1E3"/>
<rect x="65.3296" y="270" width="65.3297" height="60" rx="10" transform="rotate(-180 65.3296 270)" fill="#F1F1F1"/>
<rect x="65.3296" y="360" width="65.3297" height="80" rx="10" transform="rotate(-180 65.3296 360)" fill="#74C1E3"/>
<rect x="154.66" y="310" width="79.3297" height="80" rx="10" transform="rotate(-180 154.66 310)" fill="#F1F1F1"/>
<rect x="154.66" y="220" width="79.3297" height="180" rx="10" transform="rotate(-180 154.66 220)" fill="#74C1E3"/>
<rect x="154.66" y="400" width="79.3297" height="80" rx="10" transform="rotate(-180 154.66 400)" fill="#74C1E3"/>
<rect x="164.66" y="270" width="110.68" height="80" rx="10" fill="#F1F1F1"/>
<rect x="164.66" y="90" width="110.68" height="80" rx="10" fill="#F1F1F1"/>
<rect x="164.66" width="110.68" height="80" rx="10" fill="#74C1E3"/>
<rect x="164.66" y="180" width="110.68" height="80" rx="10" fill="#74C1E3"/>
<rect x="164.66" y="360" width="110.68" height="80" rx="10" fill="#74C1E3"/>
<rect x="285.339" y="130" width="79.3297" height="80" rx="10" fill="#F1F1F1"/>
<rect x="285.339" y="220" width="79.3297" height="180" rx="10" fill="#74C1E3"/>
<rect x="285.339" y="40" width="79.3297" height="80" rx="10" fill="#74C1E3"/>
<rect x="374.669" y="240" width="65.3297" height="120" rx="10" fill="#74C1E3"/>
<rect x="374.669" y="170" width="65.3297" height="60" rx="10" fill="#F1F1F1"/>
<rect x="374.669" y="80" width="65.3297" height="80" rx="10" fill="#74C1E3"/>
</svg>
