<svg width="886" height="754" viewBox="0 0 886 754" fill="none" xmlns="http://www.w3.org/2000/svg">
<path d="M5.69232 697.884C6.02066 694.535 7.10416 691.252 8.94282 688.034C10.7815 684.817 12.85 682.256 15.1483 680.351C20.8613 683.963 27.1982 687.082 34.1588 689.709C41.1852 692.27 48.113 693.55 54.9423 693.55C62.4283 693.55 68.1742 691.909 72.1798 688.625C76.1855 685.276 78.1883 681.107 78.1883 676.116C78.1883 672.045 76.8093 668.302 74.0513 664.887C71.2933 661.472 67.0578 658.55 61.3448 656.12L37.6063 646.172C29.3323 642.692 22.7 638.226 17.7093 632.776C12.7187 627.26 10.2233 620.168 10.2233 611.5C10.2233 604.145 12.1605 597.579 16.0348 591.8C19.9092 585.956 25.261 581.359 32.0903 578.01C38.9197 574.595 46.734 572.888 55.5333 572.888C64.0043 572.888 71.95 573.971 79.3703 576.138C86.7907 578.24 93.0618 580.604 98.1838 583.23C97.9868 586.514 97.1332 589.764 95.6228 592.982C94.1782 596.2 92.2738 598.892 89.9098 601.059C84.7878 598.498 79.1077 596.298 72.8693 594.459C66.631 592.621 60.9508 591.701 55.8288 591.701C48.8682 591.701 43.4507 593.376 39.5763 596.725C35.7677 600.074 33.8633 604.112 33.8633 608.84C33.8633 612.78 35.2423 616.064 38.0003 618.69C40.7583 621.251 44.5013 623.55 49.2293 625.585L72.9678 635.337C78.7465 637.701 83.8357 640.689 88.2353 644.3C92.7007 647.846 96.181 651.983 98.6763 656.711C101.237 661.374 102.518 666.66 102.518 672.57C102.518 680.187 100.712 687.017 97.1003 693.058C93.4887 699.099 88.0712 703.86 80.8478 707.34C73.6245 710.821 64.5297 712.561 53.5633 712.561C45.4207 712.561 37.081 711.281 28.5443 708.719C20.0733 706.093 12.456 702.481 5.69232 697.884ZM120.865 753.045C117.582 753.045 113.97 752.683 110.03 751.961C106.156 751.304 103.135 750.549 100.968 749.696C100.771 747.135 101.132 744.245 102.051 741.028C103.036 737.876 104.251 735.413 105.696 733.64C107.403 734.231 109.702 734.789 112.591 735.314C115.48 735.906 118.271 736.201 120.963 736.201C125.166 736.201 128.679 735.282 131.503 733.443C134.392 731.604 136.789 728.978 138.693 725.563C140.663 722.148 142.338 718.143 143.717 713.546L144.406 710.985C140.072 710.919 136.559 710.131 133.867 708.621C131.24 707.045 129.336 704.221 128.154 700.15L102.839 614.258C105.335 613.142 107.764 612.321 110.128 611.795C112.558 611.27 114.692 611.008 116.531 611.008C119.223 611.008 121.489 611.697 123.327 613.076C125.232 614.455 126.676 617.049 127.661 620.857L140.171 664.788C141.025 667.612 141.878 670.764 142.732 674.244C143.586 677.725 144.374 681.139 145.096 684.488C145.818 687.772 146.442 690.628 146.967 693.058C147.23 693.977 147.854 694.437 148.839 694.437L169.524 612.485C170.837 612.157 172.348 611.927 174.055 611.795C175.828 611.664 177.437 611.598 178.881 611.598C180.851 611.598 182.821 611.73 184.791 611.992C186.761 612.189 188.666 612.583 190.504 613.174L191.292 614.455L165.584 706.946C162.892 716.731 159.772 725.038 156.226 731.867C152.746 738.762 148.215 744.015 142.633 747.627C137.117 751.239 129.861 753.045 120.865 753.045ZM211.807 611.598C216.403 611.598 219.654 613.043 221.558 615.932C223.528 618.756 224.513 622.663 224.513 627.654V710C223.003 710.263 221.263 710.46 219.293 710.591C217.323 710.722 215.353 710.788 213.383 710.788C211.413 710.788 209.443 710.722 207.473 710.591C205.503 710.46 203.73 710.263 202.154 710V612.879L203.434 611.598H211.807ZM281.151 688.428C281.151 691.909 281.38 695.225 281.84 698.377C282.365 701.529 283.318 704.254 284.697 706.552C283.121 707.931 281.052 709.081 278.491 710C275.996 710.919 273.369 711.379 270.611 711.379C266.211 711.379 263.125 710.197 261.352 707.833C259.579 705.403 258.693 701.857 258.693 697.195V648.733C258.693 642.56 257.905 638.062 256.329 635.238C254.753 632.415 251.732 631.003 247.267 631.003C244.18 631.003 240.831 631.758 237.22 633.268C233.674 634.713 230.259 636.847 226.976 639.671C223.692 642.495 221 645.876 218.899 649.816V628.737C223.364 623.812 228.683 619.61 234.856 616.129C241.028 612.583 247.661 610.81 254.753 610.81C260.86 610.81 265.85 612.255 269.725 615.144C273.599 618.034 276.455 621.941 278.294 626.866C280.198 631.791 281.151 637.373 281.151 643.611V688.428ZM383.472 661.242C383.472 671.355 381.83 680.286 378.547 688.034C375.264 695.783 370.437 701.824 364.068 706.158C357.698 710.427 349.785 712.561 340.329 712.561C330.873 712.561 322.927 710.394 316.492 706.06C310.057 701.66 305.23 695.619 302.013 687.936C298.861 680.187 297.285 671.289 297.285 661.242C297.285 651.13 298.893 642.232 302.111 634.549C305.394 626.8 310.221 620.759 316.591 616.425C323.026 612.091 330.939 609.924 340.329 609.924C349.851 609.924 357.796 612.124 364.166 616.523C370.601 620.857 375.428 626.866 378.646 634.549C381.863 642.232 383.472 651.13 383.472 661.242ZM320.334 661.242C320.334 667.218 320.892 672.833 322.008 678.086C323.19 683.274 325.226 687.509 328.115 690.792C331.004 694.01 335.109 695.619 340.428 695.619C345.747 695.619 349.818 694.01 352.642 690.792C355.531 687.509 357.534 683.274 358.65 678.086C359.766 672.833 360.325 667.218 360.325 661.242C360.325 655.267 359.766 649.685 358.65 644.497C357.534 639.244 355.531 635.009 352.642 631.791C349.818 628.508 345.747 626.866 340.428 626.866C335.109 626.866 331.004 628.508 328.115 631.791C325.226 635.009 323.19 639.244 322.008 644.497C320.892 649.685 320.334 655.267 320.334 661.242ZM408.296 611.598C413.024 611.598 416.537 613.174 418.835 616.326C421.199 619.478 422.381 623.878 422.381 629.525V738.368C422.381 743.293 421.495 746.872 419.722 749.105C418.014 751.337 414.862 752.454 410.266 752.454H401.696L400.416 751.173V612.879L401.696 611.598H408.296ZM482.269 660.06C482.269 671.683 480.431 681.336 476.753 689.019C473.076 696.702 468.348 702.415 462.569 706.158C456.791 709.902 450.651 711.773 444.15 711.773C437.78 711.773 431.936 710.46 426.617 707.833C421.363 705.141 416.504 702.186 412.039 698.968L414.797 681.73C418.605 684.751 422.742 687.575 427.208 690.201C431.739 692.828 436.303 694.141 440.899 694.141C444.445 694.141 447.597 692.894 450.355 690.398C453.179 687.837 455.379 684.029 456.955 678.972C458.596 673.916 459.417 667.579 459.417 659.962C459.417 652.476 458.629 646.435 457.053 641.838C455.543 637.176 453.507 633.794 450.946 631.692C448.451 629.525 445.693 628.442 442.672 628.442C439.652 628.442 436.401 629.296 432.921 631.003C429.506 632.645 426.288 635.304 423.268 638.981C420.247 642.659 417.883 647.584 416.176 653.756L411.546 638.193C412.663 633.597 414.928 629.131 418.343 624.797C421.757 620.463 425.993 616.917 431.049 614.159C436.171 611.336 441.819 609.924 447.991 609.924C455.609 609.924 461.945 612.058 467.002 616.326C472.124 620.529 475.932 626.406 478.428 633.958C480.989 641.51 482.269 650.21 482.269 660.06ZM502.905 596.528C502.905 591.537 503.759 587.958 505.466 585.791C507.173 583.559 510.325 582.442 514.922 582.442H523.491L524.772 583.821V684.587C524.772 687.279 525.396 689.413 526.643 690.989C527.957 692.5 530.091 693.255 533.046 693.255H546.146C546.672 694.831 547.099 696.604 547.427 698.574C547.755 700.544 547.919 702.481 547.919 704.385C547.919 705.239 547.887 706.093 547.821 706.946C547.821 707.8 547.69 708.621 547.427 709.409C544.078 709.803 540.433 710.131 536.493 710.394C532.619 710.722 528.712 710.887 524.772 710.887C517.614 710.887 512.164 709.113 508.421 705.567C504.744 701.956 502.905 696.505 502.905 689.216V596.528ZM549.003 612.386C549.66 615.013 549.988 617.705 549.988 620.463C549.988 621.908 549.922 623.32 549.791 624.699C549.66 626.012 549.397 627.358 549.003 628.737L515.808 628.245L488.228 628.737C487.637 626.045 487.342 623.287 487.342 620.463C487.342 617.837 487.637 615.144 488.228 612.386L516.202 612.78L549.003 612.386ZM590.039 710C588.529 710.263 586.788 710.46 584.818 710.591C582.914 710.722 580.944 710.788 578.908 710.788C576.938 710.788 574.968 710.722 572.998 710.591C571.028 710.46 569.255 710.263 567.679 710V639.178C567.679 635.764 567.023 633.17 565.709 631.397C564.462 629.624 562.229 628.737 559.011 628.737H556.549C555.958 626.111 555.662 623.484 555.662 620.857C555.662 619.61 555.728 618.296 555.859 616.917C555.991 615.538 556.221 614.159 556.549 612.78C559.176 612.452 561.671 612.222 564.035 612.091C566.465 611.96 568.5 611.894 570.142 611.894H572.998C578.317 611.894 582.487 613.568 585.508 616.917C588.529 620.201 590.039 624.732 590.039 630.51V710ZM561.671 585.988C561.671 584.478 561.835 582.869 562.163 581.162C562.492 579.455 562.951 577.944 563.542 576.631C564.856 575.909 566.596 575.318 568.763 574.858C570.996 574.333 573.13 574.07 575.165 574.07C577.201 574.07 579.368 574.333 581.666 574.858C583.965 575.318 585.672 575.909 586.788 576.631C587.379 577.944 587.839 579.487 588.167 581.26C588.496 582.968 588.66 584.544 588.66 585.988C588.66 587.433 588.496 589.042 588.167 590.815C587.839 592.522 587.379 594 586.788 595.247C585.738 595.97 584.03 596.594 581.666 597.119C579.368 597.579 577.201 597.808 575.165 597.808C573.13 597.808 570.963 597.579 568.664 597.119C566.432 596.659 564.724 596.035 563.542 595.247C562.951 594 562.492 592.522 562.163 590.815C561.835 589.042 561.671 587.433 561.671 585.988ZM664.085 651.294C664.216 646.894 663.855 642.856 663.001 639.178C662.213 635.435 660.604 632.48 658.175 630.313C655.811 628.081 652.396 626.964 647.931 626.964C642.021 626.964 637.49 629.854 634.338 635.632C631.251 641.345 629.708 650.046 629.708 661.735C629.708 673.292 631.547 681.665 635.224 686.852C638.967 691.974 644.188 694.535 650.886 694.535C655.285 694.535 659.455 693.55 663.395 691.58C667.401 689.61 671.078 687.378 674.427 684.882C676.397 686.064 678.302 687.969 680.14 690.595C681.979 693.156 683.161 695.619 683.686 697.983C679.221 702.383 673.836 705.929 667.532 708.621C661.294 711.248 654.596 712.561 647.438 712.561C640.412 712.561 634.305 711.248 629.117 708.621C623.995 705.994 619.76 702.35 616.411 697.688C613.127 693.025 610.665 687.64 609.023 681.533C607.447 675.361 606.659 668.761 606.659 661.735C606.659 652.542 607.808 644.662 610.107 638.095C612.471 631.528 615.656 626.176 619.661 622.039C623.667 617.902 628.132 614.849 633.057 612.879C638.048 610.909 643.17 609.924 648.423 609.924C654.333 609.924 659.521 610.81 663.986 612.583C668.517 614.291 672.326 616.622 675.412 619.577C678.499 622.466 680.797 625.717 682.307 629.328C683.883 632.874 684.671 636.486 684.671 640.163C684.671 643.972 683.719 646.927 681.815 649.028C679.976 651.13 677.152 652.18 673.344 652.18C669.929 652.18 666.843 651.885 664.085 651.294ZM791.382 618.986C791.382 628.77 789.412 636.979 785.472 643.611C781.598 650.178 776.213 655.135 769.318 658.484C762.423 661.833 754.51 663.508 745.58 663.508H716.128V645.975C718.229 645.844 721.184 645.745 724.993 645.679C728.867 645.614 732.643 645.548 736.321 645.482C740.064 645.417 742.789 645.384 744.496 645.384C750.8 645.384 755.594 643.972 758.877 641.148C762.226 638.325 764.492 634.877 765.674 630.806C766.921 626.735 767.545 622.795 767.545 618.986C767.545 615.177 766.921 611.27 765.674 607.264C764.492 603.193 762.226 599.778 758.877 597.02C755.594 594.197 750.8 592.785 744.496 592.785C741.935 592.785 738.98 592.785 735.631 592.785C732.282 592.719 729.032 592.654 725.88 592.588V710C724.107 710.328 722.137 710.525 719.97 710.591C717.868 710.722 715.931 710.788 714.158 710.788C712.648 710.788 710.776 710.722 708.544 710.591C706.377 710.525 704.439 710.328 702.732 710V576.532L704.111 575.252C711.663 575.121 718.755 574.989 725.387 574.858C732.085 574.727 738.816 574.661 745.58 574.661C754.445 574.661 762.325 576.27 769.22 579.487C776.115 582.705 781.532 587.63 785.472 594.262C789.412 600.829 791.382 609.07 791.382 618.986ZM813.105 753.045C809.821 753.045 806.21 752.683 802.27 751.961C798.395 751.304 795.375 750.549 793.208 749.696C793.011 747.135 793.372 744.245 794.291 741.028C795.276 737.876 796.491 735.413 797.936 733.64C799.643 734.231 801.941 734.789 804.831 735.314C807.72 735.906 810.511 736.201 813.203 736.201C817.406 736.201 820.919 735.282 823.743 733.443C826.632 731.604 829.029 728.978 830.933 725.563C832.903 722.148 834.578 718.143 835.957 713.546L836.646 710.985C832.312 710.919 828.799 710.131 826.107 708.621C823.48 707.045 821.576 704.221 820.394 700.15L795.079 614.258C797.574 613.142 800.004 612.321 802.368 611.795C804.798 611.27 806.932 611.008 808.771 611.008C811.463 611.008 813.728 611.697 815.567 613.076C817.471 614.455 818.916 617.049 819.901 620.857L832.411 664.788C833.264 667.612 834.118 670.764 834.972 674.244C835.825 677.725 836.613 681.139 837.336 684.488C838.058 687.772 838.682 690.628 839.207 693.058C839.47 693.977 840.094 694.437 841.079 694.437L861.764 612.485C863.077 612.157 864.587 611.927 866.295 611.795C868.068 611.664 869.676 611.598 871.121 611.598C873.091 611.598 875.061 611.73 877.031 611.992C879.001 612.189 880.905 612.583 882.744 613.174L883.532 614.455L857.824 706.946C855.131 716.731 852.012 725.038 848.466 731.867C844.986 738.762 840.455 744.015 834.873 747.627C829.357 751.239 822.101 753.045 813.105 753.045Z" fill="#F1F1F1"/>
<rect x="288.33" y="200" width="65.3297" height="120" rx="10" transform="rotate(-180 288.33 200)" fill="#74C1E3"/>
<rect x="288.33" y="270" width="65.3297" height="60" rx="10" transform="rotate(-180 288.33 270)" fill="#F1F1F1"/>
<rect x="288.33" y="360" width="65.3297" height="80" rx="10" transform="rotate(-180 288.33 360)" fill="#74C1E3"/>
<rect x="377.66" y="310" width="79.3297" height="80" rx="10" transform="rotate(-180 377.66 310)" fill="#F1F1F1"/>
<rect x="377.66" y="220" width="79.3297" height="180" rx="10" transform="rotate(-180 377.66 220)" fill="#74C1E3"/>
<rect x="377.66" y="400" width="79.3297" height="80" rx="10" transform="rotate(-180 377.66 400)" fill="#74C1E3"/>
<rect x="387.66" y="270" width="110.68" height="80" rx="10" fill="#F1F1F1"/>
<rect x="387.66" y="90" width="110.68" height="80" rx="10" fill="#F1F1F1"/>
<rect x="387.66" width="110.68" height="80" rx="10" fill="#74C1E3"/>
<rect x="387.66" y="180" width="110.68" height="80" rx="10" fill="#74C1E3"/>
<rect x="387.66" y="360" width="110.68" height="80" rx="10" fill="#74C1E3"/>
<rect x="508.339" y="130" width="79.3297" height="80" rx="10" fill="#F1F1F1"/>
<rect x="508.339" y="220" width="79.3297" height="180" rx="10" fill="#74C1E3"/>
<rect x="508.339" y="40" width="79.3297" height="80" rx="10" fill="#74C1E3"/>
<rect x="597.669" y="240" width="65.3297" height="120" rx="10" fill="#74C1E3"/>
<rect x="597.669" y="170" width="65.3297" height="60" rx="10" fill="#F1F1F1"/>
<rect x="597.669" y="80" width="65.3297" height="80" rx="10" fill="#74C1E3"/>
</svg>
